<svg id="controls.fw-Page_201" data-name="controls.fw-Page%201" xmlns="http://www.w3.org/2000/svg" xmlns:xlink="http://www.w3.org/1999/xlink" width="142.5" height="31.9" viewBox="0 0 142.5 31.9"><defs><radialGradient id="radial-gradient" cx="-4435.67" cy="4681.31" r="0.5" gradientTransform="translate(62187.4 -46805.1) scale(14 10)" gradientUnits="userSpaceOnUse"><stop offset="0" stop-color="#fff"/><stop offset="1" stop-color="#f2f2f2" stop-opacity="0.2"/></radialGradient></defs><title>controls</title><path d="M0,0" transform="translate(-0.1 0)" style="fill:none;isolation:isolate"/><g id="controls"><path id="Line" d="M98.5,7.5h11" transform="translate(-0.1 0)" style="fill:#f4f4f4;stroke:#fff"/><path id="Line2" d="M98.5,3.5h11" transform="translate(-0.1 0)" style="fill:#f4f4f4;stroke:#fff"/><path id="Line3" d="M98.5,11.5h11" transform="translate(-0.1 0)" style="fill:#f4f4f4;stroke:#fff"/><path id="Ellipse" d="M108,11.5c0-.8.4-1.5,1-1.5s1,.7,1,1.5-.4,1.5-1,1.5S108,12.3,108,11.5Z" transform="translate(-0.1 0)" style="fill:#f4f4f4"/><path id="Ellipse2" d="M104,7.5c0-.8.4-1.5,1-1.5s1,.7,1,1.5S105.6,9,105,9,104,8.3,104,7.5Z" transform="translate(-0.1 0)" style="fill:#f4f4f4"/><path id="Ellipse3" d="M108,3.5c0-.8.4-1.5,1-1.5s1,.7,1,1.5S109.6,5,109,5,108,4.3,108,3.5Z" transform="translate(-0.1 0)" style="fill:#f4f4f4"/></g><g id="backlight"><g id="off"><rect x="82.9" y="21" width="10" height="6" style="fill:#515a63;stroke:#fff"/></g><g id="on"><path id="Ellipse4" d="M81,8c0-2.8,3.1-5,7-5s7,2.2,7,5-3.1,5-7,5S81,10.8,81,8Z" transform="translate(-0.1 0)" style="fill:url(#radial-gradient)"/><rect x="82.9" y="5" width="10" height="6" style="fill:#515a63;stroke:#fff"/></g></g><g id="loop"><g id="on2"><path d="M73.8,4.2a4.2,4.2,0,1,1-3.6,0L68.9,2.9a6,6,0,1,0,6.3,0Z" transform="translate(-0.1 0)" style="fill:#f4f4f4"/><path d="M71,2H66l5,5Z" transform="translate(-0.1 0)" style="fill:#f4f4f4"/></g><g id="off2"><path d="M73.8,20.2a4.2,4.2,0,1,1-3.6,0l-1.3-1.3a6,6,0,1,0,6.3,0Z" transform="translate(-0.1 0)" style="fill:#515a63"/><path d="M71,18H66l5,5Z" transform="translate(-0.1 0)" style="fill:#515a63"/></g></g><g id="cc"><text transform="translate(48.9 17)" style="isolation:isolate;font-size:10px;fill:#fff;font-family:ArialMT, Arial">cc</text><path d="M55,7c-4.7-3.2-4.9,5.9,0,3" transform="translate(-0.1 0)" style="fill:none;stroke:#fff"/><path d="M60,7c-4.7-3.2-4.9,5.9,0,3" transform="translate(-0.1 0)" style="fill:none;stroke:#fff"/><path d="M50,3H62V13H50ZM49,2V14H63V2Z" transform="translate(-0.1 0)" style="fill:#515a63"/><rect x="48.9" y="2" width="14" height="12" style="fill:none"/></g><g id="volume"><g id="no_20sound" data-name="no%20sound"><rect x="16.9" y="5" width="5" height="6" style="fill:#515a63"/><path d="M21,5l4-3V14l-4-2.9Z" transform="translate(-0.1 0)" style="fill:#515a63"/></g><g id="sound_20bars" data-name="sound%20bars"><rect x="16.9" y="21" width="5" height="6" style="fill:#515a63"/><path d="M21,21l4-3V30l-4-2.9Z" transform="translate(-0.1 0)" style="fill:#515a63"/><path d="M27,18s3.1-.6,3,6-3,6-3,6" transform="translate(-0.1 0)" style="fill:#515a63;stroke:#fff"/><path d="M26,21s2-.3,2,3-2,3-2,3" transform="translate(-0.1 0)" style="fill:#515a63;stroke:#fff"/></g></g><g id="fullscreen"><g id="enter_201" data-name="enter%201"><path d="M34,2h5L34,7Z" transform="translate(-0.1 0)" style="fill:#515a63"/><path d="M34,14h5L34,9Z" transform="translate(-0.1 0)" style="fill:#515a63"/><path d="M46,2H41l5,5Z" transform="translate(-0.1 0)" style="fill:#515a63"/><path d="M46,14H41l5-5Z" transform="translate(-0.1 0)" style="fill:#515a63"/></g><g id="exit"><path d="M42,22h4l-4-4Z" transform="translate(-0.1 0)" style="fill:#515a63"/><path d="M38,22V18l-4,4Z" transform="translate(-0.1 0)" style="fill:#515a63"/><path d="M38,26H34l4,4Z" transform="translate(-0.1 0)" style="fill:#515a63"/><path d="M42,26v4l4-4Z" transform="translate(-0.1 0)" style="fill:#515a63"/></g></g><g id="stop"><rect x="114.9" y="3" width="10" height="10" style="fill:#515a63"/></g><g id="chooser"><path d="M135.2,6.2a2,2,0,1,1-1.1,2.6A2,2,0,0,1,135.2,6.2Zm-2-4.7L136,4l2.7-2.6V5.2h3.8L140,8l2.6,2.7h-3.8v3.8L136,12l-2.7,2.6V10.8h-3.8L132,8l-2.6-2.7h3.8Z" transform="translate(-0.1 0)" style="fill:#515a63"/></g><path d="M0,0" transform="translate(-0.1 0)" style="fill:#515a63;isolation:isolate"/><g id="g3646"><g id="g3603"><g id="_356._Play" data-name="356. Play"><g id="g3606"><path id="path3608" d="M14.7,4a7.8,7.8,0,1,0-2.9,10.7A7.8,7.8,0,0,0,14.7,4ZM11,13.3a6.3,6.3,0,1,1,2.3-8.5A6.3,6.3,0,0,1,11,13.3Zm-.3-5.7L6.6,5.2c-.4-.2-.7,0-.7.4v4.7c0,.4.3.6.7.4l4.1-2.3A.4.4,0,0,0,10.7,7.5Z" transform="translate(-0.1 0)" style="fill:#515a63"/></g></g></g></g><g id="g4632"><g id="g4634"><g id="g4636"><g id="g4638"><path id="path4640" d="M14.7,20.2a7.8,7.8,0,1,0-2.9,10.7A7.8,7.8,0,0,0,14.7,20.2ZM11,29.6A6.3,6.3,0,1,1,13.3,21,6.3,6.3,0,0,1,11,29.6Z" transform="translate(-0.1 0)" style="fill:#515a63"/></g></g></g></g><g id="pause"><rect id="rect69" x="5" y="20.6" width="1.7" height="6.87" rx="0.4" ry="0.4" style="fill:#515a63"/><rect id="rect71" x="9" y="20.6" width="1.7" height="6.87" rx="0.3" ry="0.3" style="fill:#515a63"/></g></svg>